<svg width="1000" height="1000" viewBox="0 0 1000 1000" fill="none" xmlns="http://www.w3.org/2000/svg">
<g clip-path="url(#clip0_781_89)">
<rect x="6" y="-1" width="1000" height="1000" fill="white"/>
<path d="M497.022 1.07249C487.013 4.55074 481.408 12.845 481.408 24.2163C481.408 32.5106 483.143 37.3266 487.814 42.2764C493.019 47.7614 497.69 49.9019 504.763 49.9019C515.44 49.9019 523.714 45.2196 528.118 36.5239C533.59 25.5541 532.522 15.7882 524.782 7.22632C517.842 -0.399084 507.566 -2.80711 497.022 1.07249Z" fill="#1E293B"/>
<path d="M438.035 22.4768C410.409 26.3564 396.129 29.0319 377.312 33.9818C352.889 40.4032 315.254 53.3797 310.984 56.858C308.582 58.7309 308.848 63.9483 311.251 65.955C313.653 67.9617 312.185 68.363 341.278 57.9282C374.109 46.1557 411.744 37.46 447.777 33.3129C456.852 32.2426 464.993 30.6373 466.061 29.8346C468.596 27.6941 468.596 23.8145 465.927 21.2727C463.391 18.7309 464.593 18.5972 438.035 22.4768Z" fill="#1E293B"/>
<path d="M547.202 20.6041C544.933 21.4068 544.133 22.7446 544.133 25.6877C544.133 29.166 544.8 29.8349 549.204 31.0389C551.873 31.7078 560.414 33.0456 568.155 33.8482C605.923 37.8616 647.695 48.5639 691.336 65.4201C698.676 68.2295 702.012 67.1592 702.679 61.6743C703.213 57.3934 700.544 55.6542 683.595 49.2328C646.361 35.186 609.126 26.2228 570.157 21.8081C562.817 21.0054 555.343 20.2028 553.475 19.9352C551.606 19.6677 548.804 19.9352 547.202 20.6041Z" fill="#1E293B"/>
<path d="M256.266 56.7242C245.59 60.8714 238.784 72.2426 240.252 83.48L240.919 88.5636L221.968 101.005C211.692 107.828 196.211 118.53 187.803 124.952C171.521 137.259 136.155 169.5 126.546 180.871C118.806 190.236 116.137 191.707 110.398 190.503C96.7855 187.56 84.374 199.734 86.9096 213.513C89.3119 226.49 105.06 233.446 115.736 226.089C123.343 221.005 125.746 216.59 125.746 207.761V200.002L136.422 188.898C165.249 158.396 198.48 130.704 230.242 110.503L247.458 99.5335L253.864 102.878C257.468 104.617 262.139 106.089 264.407 106.089C270.68 106.089 281.757 100.336 285.894 94.8513C292.567 86.1556 292.033 71.975 284.96 63.8145C277.086 54.8513 267.343 52.4433 256.266 56.7242Z" fill="#1E293B"/>
<path d="M739.781 55.5204C731.773 57.6609 724.833 65.5539 722.965 74.3833C718.427 96.7244 740.715 113.313 759.933 102.076L764.337 99.5337L779.284 109.032C809.579 128.162 828.796 143.547 861.894 175.253L886.717 199.065L886.583 207.092C886.45 221.273 895.258 230.236 907.936 228.764C915.81 227.962 920.214 224.751 923.417 217.527C926.887 209.634 925.686 202.41 919.814 195.855C915.543 191.172 915.009 191.039 905.934 190.905L896.592 190.771L874.172 169.233C841.475 137.928 826.661 125.888 789.827 100.872L771.944 88.6976L771.81 80.1358C771.677 72.9117 771.009 70.6375 767.673 65.8214C761.267 56.7244 750.324 52.7111 739.781 55.5204Z" fill="#1E293B"/>
<path d="M502.761 64.2159C501.693 64.6172 500.359 65.6875 499.825 66.4901C499.291 67.2928 498.757 90.7042 498.757 118.664V169.232L495.288 166.958C482.209 158.396 453.382 154.517 434.431 158.798C424.155 161.072 407.74 168.162 401.734 172.978C398.932 175.253 396.263 175.654 385.986 175.654C366.635 175.654 349.553 181.005 333.404 192.109C330.201 194.249 322.327 201.072 315.788 207.226C305.378 217.259 303.51 218.463 298.972 218.463C291.499 218.463 278.42 221.941 268.945 226.222C244.255 237.594 225.438 261.674 218.231 291.105C215.695 301.54 215.028 302.878 211.959 303.547C210.09 304.082 204.885 306.356 200.348 308.898C176.459 322.008 161.779 346.49 160.177 375.654C159.51 387.159 160.044 391.172 163.914 408.831C165.649 416.189 165.516 416.724 163.113 418.062C158.175 420.603 141.76 438.53 138.157 445.353C133.219 454.583 127.747 474.115 127.747 482.811V490.035H90.6462H53.5452L50.6092 486.021C39.6657 471.172 16.5777 472.911 8.03641 489.366C5.23381 494.583 5.36727 505.687 8.16987 511.172C9.37098 513.58 12.8409 517.326 15.9104 519.466C28.0549 528.296 48.2069 522.142 52.611 508.095L53.9456 504.082L90.5128 503.68L127.08 503.413L129.482 513.714C138.424 553.981 173.123 585.285 212.359 588.63L222.502 589.433L223.169 594.249C227.306 619.667 244.789 642.944 268.811 654.984C284.159 662.61 292.967 664.483 308.848 663.546L321.126 662.877L344.214 674.516C370.505 687.76 406.806 709.165 420.952 719.867C438.702 733.111 450.98 750.77 454.583 768.028C455.517 772.71 456.051 808.028 456.051 874.65C456.051 968.696 455.918 974.315 453.782 974.315C448.311 974.315 412.811 968.696 397.997 965.486C376.511 960.803 350.754 953.044 331.269 945.553C302.042 934.181 303.777 934.716 300.974 938.195C297.905 941.941 297.905 942.877 301.241 945.954C306.98 951.305 355.558 968.161 386.654 975.519C419.217 983.278 461.656 989.031 466.594 986.489L469.397 984.884V875.987V767.091L466.061 756.523C460.722 739.533 448.311 722.543 432.029 710.235C423.087 703.279 388.656 682.81 362.631 668.63C336.34 654.449 336.474 654.583 338.743 653.111C339.81 652.443 355.024 651.907 372.774 651.907H404.937L407.473 657.526C412.01 667.827 430.428 684.55 465.794 710.101L498.757 734.048V849.901V965.753L494.754 968.696C488.882 973.111 487.013 980.603 490.083 988.496C491.951 993.579 493.419 995.185 498.224 997.325C516.107 1005.22 530.52 983.412 516.641 969.499L512.103 965.084V849.633V734.182L533.857 718.128C580.3 683.747 585.638 679.6 592.578 671.841C596.581 667.426 601.252 661.138 602.987 657.794L606.19 651.907L638.754 652.175C660.374 652.443 671.584 653.111 671.851 654.048C672.118 654.717 661.575 661.272 648.63 668.362C612.596 687.894 585.237 704.081 576.296 711.038C560.548 723.345 548.27 741.673 543.199 760.402C541.063 768.295 540.796 778.061 540.796 876.121C540.796 968.563 541.063 983.546 542.798 985.686C544.533 987.693 546.135 987.961 556.144 987.158C595.113 984.081 643.692 972.977 682.261 958.395C705.082 949.833 711.488 946.221 712.022 941.941C712.288 939.399 711.621 937.927 709.619 936.857C707.217 935.519 704.548 936.188 693.204 940.87C653.167 957.593 603.655 970.302 565.219 973.78L554.809 974.716V873.713C554.809 787.559 555.076 771.774 556.811 764.951C562.683 742.208 577.23 725.486 606.457 707.56C622.605 697.794 666.513 673.58 678.257 668.095C687.065 663.948 688.533 663.68 704.948 663.279C723.632 662.877 728.837 661.673 743.117 654.583C766.205 643.078 782.887 621.807 787.158 598.53L788.626 589.566L799.569 588.095C840.807 582.476 872.837 553.312 881.378 513.847L883.514 503.413H921.415C954.646 503.413 959.184 503.68 959.184 505.419C959.184 509.433 963.321 515.587 968.793 519.466C979.736 527.493 997.219 523.346 1003.22 511.439C1008.3 501.406 1005.49 487.493 997.085 480.804C986.676 472.643 970.661 474.65 962.253 485.352L958.516 490.035H921.015H883.514L882.713 479.6C880.978 456.055 868.566 433.045 849.883 418.864L845.212 415.386L848.414 401.741C858.023 358.797 839.873 319.734 803.039 304.617L795.832 301.54L793.564 292.309C788.492 271.841 779.951 256.59 765.671 242.677C751.525 228.764 735.376 221.139 713.756 218.329L702.279 216.724L696.407 209.901C677.456 187.828 656.904 177.527 628.878 176.055C614.598 175.253 613.931 175.119 604.188 169.5C587.239 159.868 579.499 157.727 559.48 157.727C541.197 157.594 530.787 159.868 518.109 166.289C515.306 167.761 512.637 168.965 512.504 168.965C512.237 168.965 512.103 146.356 512.103 118.798C512.103 70.3697 511.97 68.4968 509.434 65.955C506.631 63.1457 506.098 63.0119 502.761 64.2159ZM463.925 174.45C475.136 176.189 484.211 180.069 493.953 187.293C498.357 190.503 503.295 193.045 504.896 193.045C506.631 193.045 511.97 190.236 516.774 186.891C543.999 167.761 579.232 169.232 603.254 190.37L609.393 195.855L617 193.58C639.821 187.025 671.718 202.142 687.732 227.159L692.403 234.517H703.347C724.433 234.517 740.314 241.206 755.662 256.59C769.541 270.503 778.883 291.64 779.017 309.299C779.017 317.326 781.686 320.135 789.56 320.135C798.368 320.135 807.977 325.219 816.919 334.316C832.667 350.503 838.005 372.042 832.4 397.192C829.731 409.366 829.063 409.634 817.586 403.346C812.114 400.403 796.5 393.045 782.887 387.025L757.931 376.055L757.397 368.43C756.73 359.466 751.658 351.172 744.718 347.292L740.314 344.884V324.55C740.314 307.961 739.914 303.948 738.179 302.209C735.376 299.4 732.841 299.533 729.638 302.744C727.236 305.152 726.969 307.159 726.969 324.818C726.969 342.878 726.835 344.216 724.433 344.216C723.098 344.216 720.429 345.42 718.427 347.025C714.958 349.7 714.958 349.7 711.354 347.159C709.219 345.821 696.807 338.731 683.595 331.507C670.383 324.282 658.505 317.727 657.304 317.058C655.436 315.854 655.169 314.115 655.836 306.757C656.37 299.667 656.103 296.724 653.834 291.774C646.761 275.453 624.474 271.172 611.795 283.614C606.057 289.232 602.187 300.068 603.521 307.159L604.455 311.707L591.91 318.396C560.815 335.119 513.037 360.269 512.504 360.269C512.237 360.269 512.103 333.379 512.103 300.47C512.103 246.824 511.836 240.537 509.834 238.263C507.432 235.453 502.761 235.052 500.359 237.46C499.158 238.664 498.757 254.316 498.757 299.801C498.757 355.854 498.624 360.537 496.489 359.734C494.22 358.797 424.689 321.339 414.813 315.721L408.941 312.376L408.807 303.814C408.541 294.316 404.137 284.818 398.131 280.804C384.652 271.975 365.301 276.925 357.694 291.105C356.092 294.182 355.425 298.196 355.558 304.884L355.692 314.249L350.22 317.727C347.15 319.6 333.538 327.359 320.059 334.851L295.503 348.363L289.764 345.286L283.892 342.209V323.881C283.892 307.159 283.625 305.152 281.223 302.744C278.02 299.533 275.484 299.4 272.681 302.209C270.947 303.948 270.546 307.961 270.546 324.818V345.286L266.542 346.891C258.135 350.369 252.396 361.339 253.464 371.64C254.131 377.259 254.131 377.393 247.992 380.336C233.979 387.292 185 409.767 184.066 409.767C183.399 409.767 181.53 405.353 179.795 400.001C177.393 392.644 176.726 387.56 176.859 378.329C176.993 359.199 183.132 344.617 196.211 332.711C205.019 324.684 213.827 320.135 220.633 320.135C229.174 320.135 231.31 317.727 232.377 306.757C234.379 286.691 242.253 269.834 255.866 255.921C270.146 241.339 287.228 234.517 308.982 234.517H319.258L323.128 227.159C330.735 212.577 349.686 198.798 368.77 193.848C379.047 191.172 385.719 191.172 394.127 193.714C397.731 194.784 400.8 195.721 400.934 195.721C400.934 195.721 403.736 193.58 406.939 190.905C418.016 181.54 428.426 176.457 441.104 174.316C450.179 172.845 454.316 172.845 463.925 174.45ZM628.077 330.57C634.083 330.971 637.019 330.436 641.423 328.296L647.028 325.353L656.637 331.239C661.975 334.45 675.588 342.075 687.065 348.229L707.751 359.333L707.617 369.232C707.351 380.871 710.02 378.463 678.39 396.389C655.569 409.366 655.569 409.366 652.233 407.092C646.895 403.346 638.487 401.473 632.348 402.945C619.669 405.754 613.664 412.71 612.329 426.088L611.528 434.115L576.162 453.513C556.678 464.215 536.926 475.185 532.122 477.995C524.782 482.409 523.18 482.811 521.445 481.339C520.377 480.269 517.842 478.931 515.706 478.128L512.103 476.657V450.57C512.103 426.222 511.97 424.349 509.434 421.807C506.364 418.731 505.03 418.597 501.293 420.47C498.891 421.807 498.757 423.547 498.757 449.098V476.255L492.352 479.199L485.812 482.276L455.918 465.687C439.503 456.456 420.952 446.289 414.68 442.811C398.798 434.115 399.065 434.383 398.398 424.884C397.731 415.252 393.593 408.831 385.853 405.085C378.646 401.607 365.968 402.811 358.895 407.493L353.556 410.971L330.201 397.995C298.706 380.47 300.307 381.807 302.442 376.456C303.643 373.781 304.044 369.767 303.51 365.754L302.709 359.333L320.326 349.567C330.068 344.082 343.547 336.456 350.487 332.443L363.032 325.219L368.904 328.162C376.778 332.042 389.857 331.507 395.862 327.092C398.131 325.486 400.533 324.149 401.334 324.149C402.135 324.149 413.078 329.767 425.757 336.724C466.061 358.797 473.801 362.945 484.211 368.028C492.218 372.042 494.62 373.781 495.554 376.858C496.222 378.998 498.491 382.075 500.492 383.547L504.229 386.356L509.034 383.68C512.37 381.941 514.372 379.667 515.039 376.991C515.973 373.513 518.509 371.774 536.793 362.276C548.27 356.389 569.49 345.286 583.903 337.527L610.194 323.346L615.265 326.69C618.735 328.965 622.872 330.169 628.077 330.57ZM764.203 393.045C785.289 402.409 806.776 413.513 818.387 421.005C824.259 424.751 831.465 429.031 834.268 430.503C842.275 434.516 855.221 448.162 859.491 456.991C866.832 472.108 868.833 491.506 865.097 509.433C860.025 533.647 843.076 553.981 818.253 565.887C806.242 571.64 794.765 572.978 783.955 569.767C771.543 566.155 769.275 568.697 770.609 584.349C771.276 592.777 770.876 595.586 768.34 602.677C762.068 619.934 746.32 636.389 729.905 642.543C709.886 650.168 693.738 648.563 679.458 637.593L675.321 634.516L636.218 634.784L597.115 635.185L591.777 645.62C588.974 651.239 583.503 659.399 579.766 663.546C575.896 667.693 559.347 681.205 542.798 693.647L512.77 716.121L512.37 668.362C512.237 637.459 512.504 620.202 513.438 619.265C515.706 616.991 514.906 609.232 512.103 606.423C507.032 601.339 497.289 604.015 495.554 611.105C495.021 613.111 495.554 616.055 496.756 618.463C498.491 621.673 498.757 629.834 498.757 669.299C498.757 694.984 498.491 716.121 498.09 716.121C497.69 716.121 493.953 713.446 489.816 710.235C485.545 707.024 474.869 699.131 466.061 692.71C432.963 668.362 428.025 663.279 418.683 644.55L414.012 635.185L373.308 634.784L332.737 634.516L326.998 638.53C318.457 644.817 312.985 646.556 302.576 646.556C279.087 646.556 256.533 631.305 245.456 608.028C240.785 598.396 240.518 596.924 240.518 584.75C240.518 567.359 239.584 566.289 227.306 569.633C207.955 574.851 187.536 568.162 169.92 550.637C151.102 532.175 144.429 516.657 144.429 491.373C144.429 474.249 147.098 463.68 154.305 452.443C163.247 438.262 171.388 432.911 224.503 406.423L260.537 388.363L267.076 391.707C274.416 395.453 279.488 395.854 287.095 393.045C291.899 391.306 292.567 391.44 297.104 394.249C299.773 395.988 312.318 403.212 324.997 410.302C337.542 417.393 347.951 423.948 347.951 424.617C347.951 425.821 338.342 430.637 299.239 449.232C256.4 469.567 258.135 468.898 256.8 465.419C255.599 462.342 244.789 457.928 238.383 457.928C231.176 457.928 222.502 461.807 218.765 466.49C212.626 474.383 211.692 486.155 216.496 495.386C219.432 501.005 227.84 506.356 234.379 506.49L239.851 506.757L255.466 537.526C264.007 554.382 273.883 573.647 277.352 580.202C282.691 589.834 283.758 593.045 283.625 597.994C283.358 602.944 283.892 604.416 286.561 606.556C291.232 610.035 296.704 609.767 300.574 605.754C302.442 604.015 303.91 601.74 303.91 600.804C303.91 599.867 306.846 597.994 310.316 596.79C317.656 594.115 320.993 589.433 318.591 585.018C316.322 580.603 311.517 580.469 303.91 584.349C300.174 586.222 296.837 587.693 296.57 587.426C295.503 586.356 279.755 556.255 267.076 531.105L253.063 503.279L257.067 498.73C261.071 494.048 261.738 492.577 263.073 484.684L264.007 480.001L308.314 458.998L352.622 438.128L358.094 443.212C367.169 451.506 375.577 452.71 386.654 447.225L391.325 444.817L434.431 468.764C458.187 481.874 478.072 492.71 478.739 492.71C479.54 492.71 480.073 496.456 480.073 501.005V509.433L473 513.179C469.263 515.185 451.514 524.416 433.897 533.513C402.668 549.7 401.601 550.102 399.466 547.694C398.131 546.222 395.328 544.349 393.193 543.546L389.323 541.941V515.988C389.323 491.774 389.189 489.901 386.654 487.359C383.451 484.148 381.582 484.015 378.379 486.958C376.244 488.831 375.977 491.64 375.977 514.918V540.603L371.44 542.209C368.904 543.011 364.767 545.687 362.231 548.229C346.75 563.212 355.959 590.637 377.178 592.777C392.793 594.249 404.537 584.617 406.539 568.563L407.339 562.142L426.691 551.974C437.367 546.49 454.984 537.125 466.061 531.372L486.079 520.804L492.352 523.48C500.492 526.958 509.567 526.958 516.774 523.346L522.513 520.403L563.751 541.807L604.856 563.212L605.656 570.168C607.258 582.877 616.333 591.707 628.878 592.777C652.9 594.784 666.513 565.887 649.564 548.898C646.761 546.088 642.357 543.145 639.688 542.209L634.883 540.603V514.115C634.883 489.098 634.75 487.359 632.348 486.021C628.611 484.148 627.276 484.282 624.207 487.359C621.671 489.901 621.538 491.774 621.538 515.988V541.941L617.267 544.75C614.865 546.222 611.929 548.229 610.861 549.031C609.26 550.102 601.653 546.757 574.161 532.443C526.783 507.961 530.52 510.637 529.986 501.005L529.586 493.245L536.526 489.767C540.396 487.894 560.415 476.924 581.1 465.553L618.869 444.684L623.139 447.092C633.415 452.978 643.558 451.64 652.9 443.078L658.505 437.861L673.052 444.684C681.06 448.296 700.678 457.794 716.693 465.553C740.581 477.326 745.653 480.269 745.653 482.543C745.653 488.162 748.589 495.52 752.592 500.202L756.73 504.884L736.845 544.215C725.901 565.887 716.292 584.483 715.491 585.553C714.157 587.426 713.223 587.292 707.217 584.349C703.347 582.476 699.61 581.005 698.676 581.005C696.007 581.005 692.27 585.285 692.27 588.496C692.27 592.108 698.142 597.058 702.413 597.058C704.281 597.058 706.149 598.262 707.084 600.001C711.888 609.499 719.095 611.774 725.234 605.62C728.17 602.677 728.437 601.473 727.769 596.79C727.102 592.777 727.503 590.369 729.371 587.292C730.839 584.884 740.181 566.69 750.324 546.891C760.466 526.958 769.275 510.102 769.942 509.299C770.476 508.496 773.412 507.426 776.081 506.891C787.291 505.152 796.366 494.182 796.366 482.543C796.366 477.326 793.43 469.299 789.96 465.553C781.286 455.921 762.602 455.52 752.859 464.75C750.591 466.891 749.389 467.159 747.521 466.088C744.185 464.082 688.4 437.192 677.857 432.376C673.186 430.236 667.58 427.159 665.312 425.687C661.975 423.279 661.708 422.476 663.176 421.139C664.111 420.068 676.389 412.71 690.535 404.55L716.159 389.7L721.897 392.376C725.1 393.848 729.771 395.052 732.307 395.052C737.245 395.052 747.388 391.038 748.856 388.496C750.057 386.624 748.722 386.222 764.203 393.045Z" fill="#1E293B"/>
<path d="M374.109 225.42C372.908 227.025 371.973 229.433 371.973 230.637C371.973 234.116 377.178 239.868 380.515 239.868C384.385 239.868 389.323 234.517 389.323 230.236C389.323 223.012 378.246 219.4 374.109 225.42Z" fill="#1E293B"/>
<path d="M623.806 224.884C622.605 226.222 621.538 229.299 621.538 231.573C621.538 240.67 633.282 242.409 637.419 233.981C639.021 230.637 638.887 229.834 636.618 226.623C633.282 222.209 627.009 221.272 623.806 224.884Z" fill="#1E293B"/>
<path d="M453.249 262.744C450.179 265.821 450.446 272.376 454.049 275.854C456.985 278.931 464.059 278.262 466.995 274.784C474.602 265.286 461.79 254.182 453.249 262.744Z" fill="#1E293B"/>
<path d="M543.866 261.407C540.93 263.012 540.529 273.581 543.199 275.721C549.204 280.805 558.813 276.524 558.813 268.764C558.813 266.223 557.745 263.413 556.411 262.209C553.608 259.668 547.336 259.266 543.866 261.407Z" fill="#1E293B"/>
<path d="M371.973 362.945C366.235 368.697 370.372 380.336 378.246 380.336C382.516 380.336 387.988 374.583 387.988 370.303C387.988 365.888 382.383 360.269 377.979 360.269C376.11 360.269 373.441 361.473 371.973 362.945Z" fill="#1E293B"/>
<path d="M627.276 361.607C623.94 362.945 621.538 366.824 621.538 370.971C621.538 374.851 627.41 380.336 631.547 380.336C635.951 380.336 641.556 374.851 641.556 370.57C641.556 363.747 633.682 358.931 627.276 361.607Z" fill="#1E293B"/>
<path d="M259.869 415.119C258.401 416.59 257.2 419.266 257.2 421.139C257.2 428.497 267.476 432.778 272.281 427.426C277.219 421.941 273.082 412.443 265.875 412.443C264.007 412.443 261.337 413.647 259.869 415.119Z" fill="#1E293B"/>
<path d="M740.047 414.717C736.844 418.463 736.177 421.807 737.912 424.884C739.914 428.764 741.515 429.834 745.919 429.834C749.523 429.834 754.995 424.617 754.995 421.138C754.995 420.202 753.793 417.928 752.192 415.921C748.989 411.774 743.117 411.239 740.047 414.717Z" fill="#1E293B"/>
<path d="M310.049 501.004C302.976 511.038 316.322 522.944 323.796 513.312C325.397 511.305 326.598 508.764 326.598 507.426C326.598 506.088 325.397 503.546 323.796 501.54C320.192 496.991 312.986 496.724 310.049 501.004Z" fill="#1E293B"/>
<path d="M686.932 500.738C681.193 506.49 685.464 516.791 693.338 516.791C698.409 516.791 702.946 512.376 702.946 507.426C702.946 499.4 692.537 495.119 686.932 500.738Z" fill="#1E293B"/>
<path d="M184.2 508.095C178.594 511.975 179.128 520.269 185.267 523.613C189.271 525.754 194.075 524.015 196.478 519.466C200.882 510.904 191.94 502.61 184.2 508.095Z" fill="#1E293B"/>
<path d="M815.184 509.566C811.58 514.249 811.714 517.459 815.718 521.473C819.454 525.352 820.522 525.486 825.593 522.81C832.133 519.466 832.133 510.904 825.727 507.426C821.59 505.152 818.12 505.954 815.184 509.566Z" fill="#1E293B"/>
<path d="M499.291 547.025C496.622 549.566 496.088 551.172 496.622 553.981C497.556 557.861 501.96 562.275 504.763 562.275C508.233 562.275 513.438 556.79 513.438 553.178C513.438 548.764 512.37 547.158 508.5 545.018C504.363 542.877 503.028 543.145 499.291 547.025Z" fill="#1E293B"/>
<path d="M456.852 642.811C453.916 646.824 454.183 650.837 457.386 654.316C460.989 658.195 464.726 658.061 468.863 653.78C471.532 651.239 472.066 649.633 471.399 646.824C469.797 639.6 460.722 637.192 456.852 642.811Z" fill="#1E293B"/>
<path d="M540.93 642.008C537.727 645.219 538.261 652.71 541.73 655.118C545.734 657.928 548.937 657.794 552.14 654.583C555.477 651.239 555.61 644.951 552.407 642.142C549.338 639.332 543.599 639.199 540.93 642.008Z" fill="#1E293B"/>
<path d="M80.1031 246.825C72.8964 254.852 56.2143 287.895 47.1392 311.841C30.3237 356.39 21.382 395.587 16.978 444.283C15.3765 460.871 16.3107 464.617 21.5155 464.617C26.5869 464.617 27.9214 461.54 29.1225 444.952C31.9251 409.5 38.3311 377.527 49.5414 341.674C59.2838 311.173 70.7611 285.219 85.4414 261.005C88.9112 255.387 91.7138 250.169 91.7138 249.367C91.7138 247.226 87.7101 243.882 85.1744 243.882C83.8399 243.882 81.5711 245.219 80.1031 246.825Z" fill="#1E293B"/>
<path d="M922.083 245.487C919.414 248.163 920.081 250.437 928.355 264.484C947.44 297.527 961.72 334.316 971.862 376.858C978.535 405.219 983.206 435.855 983.206 452.845C983.206 460.738 985.341 464.617 989.745 464.617C995.884 464.617 996.418 459.132 993.215 429.567C989.612 395.453 980.403 355.989 967.592 320.136C961.319 302.477 942.368 262.477 934.895 251.24C930.224 244.283 925.419 242.143 922.083 245.487Z" fill="#1E293B"/>
<path d="M18.5796 537.125C16.4443 539.266 16.5778 546.222 18.98 566.022C26.587 627.025 44.6037 684.684 74.6315 743.145C83.4397 760.403 86.1088 763.613 90.246 762.276C96.1181 760.403 95.0504 756.389 81.9716 730.035C53.0115 671.975 35.7955 614.584 30.3238 557.594C29.5231 548.764 28.1885 540.202 27.5212 538.463C26.3201 535.253 21.2487 534.45 18.5796 537.125Z" fill="#1E293B"/>
<path d="M984.674 537.928C984.006 539.132 982.805 547.025 982.005 555.319C978.802 587.56 971.595 620.737 960.652 654.717C951.71 682.142 943.302 702.61 928.488 732.175C916.744 755.586 916.477 756.656 918.479 759.733C921.282 764.014 925.019 763.747 928.221 759.198C931.825 754.248 946.905 723.747 954.379 706.356C963.054 686.422 967.858 673.178 974.664 650.57C987.476 608.295 998.553 543.145 993.882 537.526C991.614 534.851 986.275 534.984 984.674 537.928Z" fill="#1E293B"/>
<path d="M100.789 775.252C84.7742 779.399 82.5054 802.944 97.1857 811.639C100.522 813.646 102.924 813.914 109.464 813.245L117.471 812.442L142.294 836.924C155.907 850.435 175.258 867.827 185.134 875.72C201.149 888.562 237.849 914.248 242.921 916.255C243.988 916.656 245.189 919.198 245.723 922.007C248.125 937.124 267.61 942.475 278.287 930.97C281.89 926.957 282.557 925.218 282.557 919.733C282.557 904.616 268.011 895.786 254.665 902.743C249.06 905.552 248.526 905.419 227.44 891.238C195.543 869.833 170.32 848.562 142.294 819.399L125.612 802.007V794.649C125.745 786.355 122.943 781.272 116.27 777.526C110.798 774.449 106.528 773.78 100.789 775.252Z" fill="#1E293B"/>
<path d="M895.525 777.526C889.119 781.54 886.583 786.356 886.583 794.516V801.606L869.1 819.533C838.272 851.372 814.783 871.305 781.553 893.513L762.869 905.954L758.598 903.412C753.527 900.202 744.452 899.934 738.98 902.743C732.574 906.088 729.638 911.038 729.638 918.529C729.638 927.493 733.375 933.379 740.848 936.188C751.658 940.335 764.337 933.914 767.139 922.944C768.474 917.593 769.541 916.523 782.754 907.961C815.984 886.422 843.61 863.68 874.972 831.974L894.324 812.576L899.929 813.379C912.34 814.984 921.682 809.499 924.618 798.663C926.353 792.242 923.684 783.948 918.479 778.998C913.675 774.449 901.53 773.78 895.525 777.526Z" fill="#1E293B"/>
</g>
<defs>
<clipPath id="clip0_781_89">
<rect width="1000" height="1000" fill="white"/>
</clipPath>
</defs>
</svg>
