<svg width="1366" height="1366" viewBox="0 0 1366 1366" fill="none" xmlns="http://www.w3.org/2000/svg">
<path d="M670.409 2.49619C656.743 7.24517 649.09 18.5697 649.09 34.0952C649.09 45.4197 651.459 51.9952 657.837 58.7533C664.943 66.2421 671.32 69.1646 680.978 69.1646C695.555 69.1646 706.852 62.7717 712.865 50.8992C720.336 35.9217 718.878 22.588 708.31 10.8982C698.835 0.487002 684.804 -2.80075 670.409 2.49619Z" fill="#1E293B"/>
<path d="M589.871 31.7201C552.153 37.017 532.656 40.6701 506.964 47.4282C473.619 56.1956 422.235 73.9129 416.404 78.6619C413.125 81.219 413.489 88.3425 416.769 91.0823C420.049 93.8221 418.044 94.3701 457.767 80.1231C502.591 64.0497 553.975 52.1772 603.173 46.515C615.563 45.0537 626.678 42.8619 628.136 41.766C631.598 38.8435 631.598 33.5466 627.954 30.0762C624.492 26.6058 626.132 26.4231 589.871 31.7201Z" fill="#1E293B"/>
<path d="M738.921 29.1638C735.824 30.2597 734.73 32.0863 734.73 36.1046C734.73 40.8536 735.642 41.7669 741.655 43.4108C745.299 44.324 756.96 46.1506 767.529 47.2465C819.095 52.7261 876.128 67.3383 935.712 90.3526C945.733 94.1883 950.289 92.7271 951.2 85.2383C951.929 79.3934 948.284 77.0189 925.143 68.2516C874.306 49.073 823.468 36.8353 770.262 30.8077C760.24 29.7118 750.036 28.6159 747.485 28.2506C744.934 27.8853 741.108 28.2506 738.921 29.1638Z" fill="#1E293B"/>
<path d="M341.697 78.4799C327.12 84.1421 317.827 99.6676 319.831 115.01L320.743 121.951L294.868 138.938C280.838 148.253 259.701 162.866 248.222 171.633C225.992 188.437 177.705 232.456 164.586 247.982C154.017 260.768 150.373 262.777 142.538 261.133C123.952 257.115 107.006 273.736 110.469 292.549C113.748 310.267 135.25 319.765 149.827 309.719C160.213 302.778 163.493 296.75 163.493 284.695V274.101L178.07 258.941C217.428 217.296 262.799 179.487 306.165 151.906L329.671 136.929L338.417 141.495C343.337 143.87 349.714 145.879 352.812 145.879C361.376 145.879 376.5 138.025 382.148 130.536C391.259 118.664 390.53 99.3023 380.873 88.1605C370.122 75.9227 356.821 72.635 341.697 78.4799Z" fill="#1E293B"/>
<path d="M1001.86 76.8361C990.922 79.7586 981.447 90.5351 978.896 102.59C972.701 133.093 1003.13 155.742 1029.37 140.399L1035.38 136.929L1055.79 149.897C1097.15 176.017 1123.39 197.022 1168.58 240.311L1202.47 272.823L1202.29 283.782C1202.11 303.143 1214.13 315.381 1231.44 313.372C1242.19 312.276 1248.21 307.892 1252.58 298.029C1257.32 287.252 1255.68 277.389 1247.66 268.439C1241.83 262.046 1241.1 261.864 1228.71 261.681L1215.96 261.498L1185.34 232.091C1140.7 189.35 1120.48 172.912 1070.18 138.756L1045.77 122.134L1045.59 110.444C1045.4 100.581 1044.49 97.4759 1039.94 90.9004C1031.19 78.48 1016.25 73.0004 1001.86 76.8361Z" fill="#1E293B"/>
<path d="M678.245 88.7081C676.787 89.2561 674.965 90.7173 674.236 91.8132C673.507 92.9091 672.778 124.873 672.778 163.048V232.091L668.041 228.986C650.184 217.296 610.826 211.999 584.951 217.844C570.921 220.949 548.509 230.63 540.309 237.205C536.483 240.31 532.838 240.858 518.808 240.858C492.387 240.858 469.064 248.164 447.016 263.324C442.643 266.247 431.892 275.562 422.964 283.964C408.751 297.663 406.2 299.307 400.005 299.307C389.801 299.307 371.944 304.056 359.007 309.901C325.298 325.426 299.606 358.304 289.766 398.488C286.304 412.735 285.393 414.561 281.202 415.474C278.651 416.205 271.545 419.31 265.35 422.781C232.733 440.681 212.69 474.106 210.503 513.924C209.592 529.633 210.321 535.112 215.605 559.222C217.974 569.268 217.792 569.999 214.512 571.825C207.77 575.296 185.358 599.771 180.438 609.087C173.696 621.69 166.226 648.357 166.226 660.229V670.093H115.57H64.9151L60.9064 664.613C45.9649 644.339 14.442 646.713 2.78038 669.179C-1.0461 676.303 -0.863886 691.463 2.96259 698.952C4.60251 702.24 9.34005 707.354 13.531 710.276C30.1124 722.332 57.6265 713.929 63.6396 694.751L65.4617 689.271L115.388 688.723L165.315 688.358L168.594 702.422C180.803 757.401 228.178 800.142 281.749 804.708L295.597 805.804L296.508 812.379C302.157 847.084 326.027 878.865 358.825 895.304C379.779 905.715 391.805 908.272 413.489 906.994L430.252 906.08L461.775 921.971C497.671 940.054 547.233 969.278 566.548 983.891C590.782 1001.97 607.546 1026.08 612.466 1049.65C613.741 1056.04 614.47 1104.26 614.47 1195.22C614.47 1323.63 614.288 1331.3 611.372 1331.3C603.902 1331.3 555.433 1323.63 535.207 1319.24C505.871 1312.85 470.704 1302.25 444.101 1292.03C404.196 1276.5 406.565 1277.23 402.738 1281.98C398.547 1287.09 398.547 1288.37 403.103 1292.57C410.938 1299.88 477.263 1322.89 519.719 1332.94C564.179 1343.53 622.123 1351.39 628.865 1347.92L632.691 1345.73V1197.05V1048.37L628.136 1033.94C620.847 1010.74 603.902 987.544 581.672 970.74C569.463 961.242 522.452 933.296 486.921 913.935C451.025 894.573 451.207 894.756 454.305 892.747C455.762 891.834 476.535 891.103 500.769 891.103H544.682L548.144 898.774C554.34 912.839 579.485 935.67 627.772 970.557L672.778 1003.25V1161.43V1319.61L667.312 1323.63C659.294 1329.65 656.743 1339.88 660.934 1350.66C663.485 1357.6 665.49 1359.79 672.049 1362.71C696.466 1373.49 716.145 1343.72 697.195 1324.72L690.999 1318.69V1161.06V1003.43L720.7 981.516C784.11 934.574 791.399 928.912 800.874 918.318C806.34 912.291 812.718 903.706 815.087 899.14L819.46 891.103L863.92 891.468C893.438 891.834 908.744 892.747 909.109 894.025C909.473 894.939 895.078 903.889 877.404 913.569C828.206 940.237 790.852 962.338 778.644 971.836C757.143 988.64 740.379 1013.66 733.455 1039.23C730.54 1050.01 730.175 1063.34 730.175 1197.23C730.175 1323.44 730.54 1343.9 732.909 1346.82C735.277 1349.56 737.464 1349.93 751.13 1348.83C804.336 1344.63 870.662 1329.47 923.321 1309.56C954.48 1297.87 963.226 1292.94 963.955 1287.09C964.319 1283.62 963.408 1281.62 960.675 1280.15C957.395 1278.33 953.751 1279.24 938.263 1285.63C883.599 1308.47 815.998 1325.82 763.52 1330.57L749.308 1331.84V1193.94C749.308 1076.31 749.672 1054.76 752.041 1045.44C760.058 1014.39 779.919 991.562 819.824 967.087C841.872 953.753 901.82 920.693 917.855 913.204C929.881 907.542 931.885 907.176 954.297 906.628C979.807 906.08 986.914 904.437 1006.41 894.756C1037.93 879.048 1060.71 850.006 1066.54 818.224L1068.55 805.987L1083.49 803.977C1139.79 796.306 1183.52 756.488 1195.18 702.605L1198.1 688.358H1249.85C1295.22 688.358 1301.41 688.723 1301.41 691.098C1301.41 696.577 1307.06 704.979 1314.53 710.276C1329.47 721.236 1353.34 715.573 1361.54 699.317C1368.47 685.618 1364.64 666.622 1353.16 657.49C1338.95 646.348 1317.08 649.088 1305.6 663.7L1300.5 670.093H1249.3H1198.1L1197.01 655.846C1194.64 623.699 1177.69 592.283 1152.18 572.921L1145.8 568.172L1150.18 549.542C1163.3 490.91 1138.51 437.575 1088.22 416.936L1078.38 412.735L1075.29 400.132C1068.36 372.186 1056.7 351.363 1037.2 332.367C1017.89 313.371 995.842 302.96 966.324 299.124L950.653 296.933L942.636 287.617C916.762 257.48 888.701 243.415 850.436 241.406C830.939 240.31 830.028 240.128 816.727 232.456C793.585 219.305 783.017 216.383 755.685 216.383C730.722 216.2 716.509 219.305 699.199 228.072C695.373 230.082 691.728 231.725 691.546 231.725C691.182 231.725 690.999 200.857 690.999 163.231C690.999 97.1102 690.817 94.553 687.355 91.0826C683.529 87.2469 682.8 87.0642 678.245 88.7081ZM625.221 239.214C640.526 241.589 652.917 246.886 666.219 256.749C672.232 261.133 678.973 264.603 681.16 264.603C683.529 264.603 690.817 260.767 697.377 256.201C734.548 230.082 782.653 232.091 815.451 260.95L823.833 268.439L834.219 265.334C865.377 256.384 908.926 277.023 930.792 311.18L937.169 321.225H952.111C980.901 321.225 1002.58 330.358 1023.54 351.363C1042.49 370.359 1055.24 399.218 1055.43 423.329C1055.43 434.288 1059.07 438.123 1069.82 438.123C1081.85 438.123 1094.97 445.064 1107.17 457.485C1128.68 479.586 1135.96 508.993 1128.31 543.332C1124.67 559.953 1123.76 560.318 1108.09 551.734C1100.61 547.715 1079.3 537.669 1060.71 529.45L1026.64 514.472L1025.91 504.061C1025 491.823 1018.07 480.499 1008.6 475.202L1002.58 471.914V444.151C1002.58 421.502 1002.04 416.022 999.669 413.648C995.842 409.812 992.38 409.995 988.007 414.379C984.727 417.666 984.363 420.406 984.363 444.516C984.363 469.174 984.18 471.001 980.901 471.001C979.078 471.001 975.434 472.645 972.701 474.837C967.963 478.49 967.963 478.49 963.044 475.019C960.128 473.193 943.182 463.512 925.143 453.649C907.104 443.786 890.887 434.836 889.247 433.922C886.696 432.279 886.332 429.904 887.243 419.858C887.972 410.178 887.607 406.159 884.51 399.401C874.853 377.117 844.423 371.272 827.113 388.259C819.278 395.931 813.993 410.725 815.815 420.406L817.091 426.616L799.963 435.749C757.507 458.581 692.275 492.919 691.546 492.919C691.182 492.919 690.999 456.206 690.999 411.273C690.999 338.03 690.635 329.445 687.902 326.34C684.622 322.504 678.245 321.956 674.965 325.244C673.325 326.888 672.778 348.258 672.778 410.36C672.778 486.892 672.596 493.285 669.681 492.189C666.583 490.91 571.65 439.767 558.166 432.096L550.149 427.53L549.967 415.84C549.602 402.871 543.589 389.903 535.389 384.423C516.986 372.368 490.565 379.126 480.179 398.488C477.992 402.689 477.081 408.168 477.263 417.301L477.446 430.087L469.975 434.836C465.784 437.393 447.198 447.987 428.795 458.215L395.268 476.663L387.432 472.462L379.415 468.261V443.238C379.415 420.406 379.051 417.666 375.771 414.379C371.398 409.995 367.936 409.812 364.109 413.648C361.74 416.022 361.194 421.502 361.194 444.516V472.462L355.727 474.654C344.248 479.403 336.413 494.381 337.87 508.445C338.781 516.116 338.781 516.299 330.4 520.317C311.267 529.815 244.395 560.501 243.12 560.501C242.208 560.501 239.657 554.473 237.289 547.167C234.009 537.121 233.098 530.181 233.28 517.577C233.462 491.458 241.844 471.549 259.701 455.293C271.727 444.334 283.753 438.123 293.046 438.123C304.708 438.123 307.623 434.836 309.081 419.858C311.814 392.46 322.564 369.446 341.15 350.45C360.647 330.541 383.97 321.225 413.671 321.225H427.701L432.986 311.18C443.372 291.27 469.246 272.457 495.303 265.699C509.333 262.046 518.444 262.046 529.923 265.516C534.843 266.978 539.034 268.256 539.216 268.256C539.216 268.256 543.042 265.334 547.416 261.681C562.539 248.895 576.752 241.954 594.062 239.032C606.453 237.022 612.101 237.022 625.221 239.214ZM849.343 452.37C857.542 452.918 861.551 452.188 867.564 449.265L875.217 445.247L888.336 453.284C895.625 457.667 914.211 468.079 929.881 476.481L958.124 491.641L957.942 505.157C957.577 521.048 961.222 517.76 918.037 542.236C886.879 559.953 886.879 559.953 882.323 556.848C875.035 551.734 863.555 549.176 855.174 551.186C837.863 555.021 829.664 564.519 827.842 582.785L826.748 593.744L778.462 620.228C751.859 634.841 724.891 649.818 718.331 653.654C708.31 659.682 706.123 660.229 703.754 658.22C702.297 656.759 698.835 654.933 695.919 653.837L690.999 651.827V616.21C690.999 582.967 690.817 580.41 687.355 576.94C683.164 572.739 681.342 572.556 676.24 575.113C672.96 576.94 672.778 579.314 672.778 614.201V651.279L664.032 655.298L655.104 659.499L614.288 636.85C591.876 624.247 566.548 610.365 557.984 605.616C536.301 593.744 536.665 594.109 535.754 581.141C534.843 567.99 529.194 559.222 518.626 554.108C508.786 549.359 491.476 551.003 481.819 557.396L474.53 562.145L442.643 544.427C399.641 520.5 401.827 522.326 404.743 515.02C406.383 511.367 406.929 505.888 406.2 500.408L405.107 491.641L429.159 478.307C442.461 470.818 460.864 460.407 470.339 454.927L487.467 445.064L495.485 449.083C506.235 454.38 524.092 453.649 532.292 447.621C535.389 445.43 538.669 443.603 539.763 443.603C540.856 443.603 555.797 451.274 573.108 460.772C628.136 490.91 638.704 496.572 652.917 503.513C663.85 508.993 667.13 511.367 668.405 515.568C669.316 518.491 672.414 522.692 675.147 524.701L680.249 528.537L686.809 524.884C691.364 522.509 694.097 519.404 695.008 515.751C696.284 511.002 699.746 508.627 724.709 495.659C740.379 487.622 769.351 472.462 789.03 461.868L824.926 442.507L831.85 447.073C836.588 450.179 842.236 451.822 849.343 452.37ZM1035.2 537.669C1063.99 550.455 1093.33 565.615 1109.18 575.844C1117.2 580.958 1127.04 586.803 1130.86 588.812C1141.79 594.292 1159.47 612.922 1165.3 624.977C1175.32 645.617 1178.06 672.102 1172.95 696.577C1166.03 729.638 1142.89 757.401 1109 773.657C1092.6 781.511 1076.93 783.338 1062.17 778.954C1045.22 774.022 1042.12 777.493 1043.95 798.863C1044.86 810.37 1044.31 814.206 1040.85 823.887C1032.28 847.449 1010.78 869.915 988.371 878.317C961.039 888.728 938.992 886.537 919.495 871.559L913.846 867.358L860.458 867.723L807.069 868.271L799.781 882.518C795.954 890.19 788.483 901.332 783.382 906.994C778.097 912.656 755.503 931.104 732.909 948.091L691.911 978.776L691.364 913.569C691.182 871.376 691.546 847.814 692.822 846.536C695.919 843.431 694.826 832.837 690.999 829.001C684.075 822.06 670.774 825.713 668.405 835.394C667.676 838.134 668.405 842.152 670.045 845.44C672.414 849.823 672.778 860.965 672.778 914.848C672.778 949.917 672.414 978.776 671.867 978.776C671.32 978.776 666.219 975.123 660.57 970.74C654.739 966.356 640.162 955.579 628.136 946.812C582.947 913.569 576.205 906.628 563.45 881.057L557.073 868.271L501.498 867.723L446.105 867.358L438.27 872.838C426.608 881.422 419.137 883.797 404.925 883.797C372.855 883.797 342.061 862.974 326.938 831.193C320.56 818.042 320.196 816.033 320.196 799.411C320.196 775.666 318.92 774.205 302.157 778.771C275.736 785.895 247.857 776.762 223.805 752.835C198.113 727.628 189.002 706.441 189.002 671.919C189.002 648.54 192.646 634.11 202.486 618.767C214.694 599.406 225.809 592.1 298.33 555.935L347.528 531.276L356.456 535.843C366.478 540.957 373.402 541.505 383.788 537.669C390.348 535.295 391.259 535.477 397.454 539.313C401.098 541.688 418.226 551.551 435.537 561.232C452.665 570.912 466.877 579.862 466.877 580.775C466.877 582.419 453.758 588.995 400.37 614.384C341.879 642.147 344.248 641.234 342.426 636.485C340.786 632.284 326.027 626.256 317.28 626.256C307.441 626.256 295.597 631.553 290.495 637.946C282.113 648.722 280.838 664.796 287.397 677.399C291.406 685.07 302.885 692.376 311.814 692.559L319.285 692.924L340.604 734.935C352.265 757.949 365.749 784.251 370.487 793.201C377.775 806.352 379.233 810.736 379.051 817.494C378.686 824.252 379.415 826.261 383.059 829.184C389.437 833.933 396.907 833.567 402.192 828.088C404.743 825.713 406.747 822.608 406.747 821.329C406.747 820.051 410.756 817.494 415.493 815.85C425.515 812.197 430.07 805.804 426.79 799.776C423.693 793.749 417.133 793.566 406.747 798.863C401.645 801.42 397.09 803.429 396.725 803.064C395.268 801.603 373.766 760.506 356.456 726.167L337.324 688.175L342.79 681.965C348.257 675.572 349.168 673.563 350.99 662.787L352.265 656.394L412.76 627.717L473.255 599.223L480.726 606.164C493.116 617.489 504.595 619.133 519.719 611.644L526.097 608.356L584.951 641.051C617.385 658.951 644.535 673.746 645.446 673.746C646.539 673.746 647.268 678.86 647.268 685.07V696.577L637.611 701.692C632.509 704.432 608.275 717.035 584.223 729.455C541.585 751.556 540.127 752.104 537.212 748.816C535.389 746.807 531.563 744.25 528.648 743.154L523.363 740.962V705.527C523.363 672.467 523.181 669.91 519.719 666.44C515.346 662.056 512.795 661.873 508.422 665.892C505.506 668.449 505.142 672.285 505.142 704.066V739.136L498.947 741.327C495.485 742.423 489.836 746.076 486.374 749.547C465.237 770.004 477.81 807.448 506.782 810.37C528.101 812.379 544.136 799.228 546.869 777.31L547.962 768.543L574.383 754.661C588.96 747.172 613.012 734.387 628.136 726.533L655.468 712.103L664.032 715.756C675.147 720.505 687.537 720.505 697.377 715.573L705.212 711.555L761.516 740.779L817.638 770.004L818.731 779.502C820.917 796.854 833.308 808.909 850.436 810.37C883.234 813.11 901.82 773.657 878.679 750.46C874.853 746.624 868.839 742.606 865.195 741.327L858.636 739.136V702.97C858.636 668.814 858.453 666.44 855.174 664.613C850.072 662.056 848.249 662.239 844.058 666.44C840.596 669.91 840.414 672.467 840.414 705.527V740.962L834.583 744.798C831.304 746.807 827.295 749.547 825.837 750.643C823.651 752.104 813.264 747.538 775.729 727.994C711.043 694.568 716.145 698.221 715.416 685.07L714.869 674.476L724.344 669.727C729.629 667.17 756.961 652.193 785.204 636.667L836.77 608.173L842.601 611.461C856.631 619.498 870.479 617.671 883.234 605.982L890.887 598.858L910.749 608.173C921.681 613.105 948.467 626.073 970.332 636.667C1002.95 652.741 1009.87 656.759 1009.87 659.864C1009.87 667.536 1013.88 677.582 1019.35 683.974L1025 690.367L997.846 744.067C982.905 773.657 969.786 799.046 968.692 800.507C966.87 803.064 965.595 802.882 957.395 798.863C952.111 796.306 947.009 794.297 945.733 794.297C942.089 794.297 936.987 800.142 936.987 804.525C936.987 809.457 945.005 816.215 950.835 816.215C953.386 816.215 955.937 817.859 957.213 820.234C963.773 833.202 973.612 836.307 981.994 827.905C986.003 823.887 986.367 822.243 985.456 815.85C984.545 810.37 985.091 807.083 987.642 802.882C989.647 799.594 1002.4 774.753 1016.25 747.72C1030.1 720.505 1042.12 697.491 1043.04 696.395C1043.76 695.299 1047.77 693.838 1051.42 693.107C1066.72 690.733 1079.11 675.755 1079.11 659.864C1079.11 652.741 1075.1 641.782 1070.37 636.667C1058.52 623.516 1033.01 622.968 1019.71 635.571C1016.61 638.494 1014.97 638.859 1012.42 637.398C1007.87 634.658 931.703 597.945 917.308 591.369C910.931 588.447 903.278 584.246 900.18 582.237C895.625 578.949 895.26 577.853 897.265 576.026C898.54 574.565 915.304 564.519 934.618 553.377L969.603 533.103L977.439 536.756C981.812 538.765 988.189 540.409 991.651 540.409C998.393 540.409 1012.24 534.93 1014.25 531.459C1015.89 528.902 1014.06 528.354 1035.2 537.669Z" fill="#1E293B"/>
<path d="M502.591 308.806C500.951 310.998 499.676 314.285 499.676 315.929C499.676 320.678 506.782 328.532 511.337 328.532C516.621 328.532 523.363 321.226 523.363 315.381C523.363 305.518 508.24 300.586 502.591 308.806Z" fill="#1E293B"/>
<path d="M843.512 308.074C841.872 309.901 840.414 314.102 840.414 317.207C840.414 329.627 856.449 332.002 862.098 320.494C864.284 315.928 864.102 314.832 861.004 310.449C856.449 304.421 847.885 303.142 843.512 308.074Z" fill="#1E293B"/>
<path d="M610.644 359.765C606.453 363.966 606.817 372.916 611.737 377.665C615.746 381.866 625.403 380.953 629.412 376.204C639.798 363.236 622.305 348.075 610.644 359.765Z" fill="#1E293B"/>
<path d="M734.366 357.939C730.358 360.131 729.811 374.561 733.455 377.483C741.655 384.424 754.774 378.579 754.774 367.985C754.774 364.515 753.316 360.679 751.494 359.035C747.668 355.565 739.104 355.017 734.366 357.939Z" fill="#1E293B"/>
<path d="M499.675 496.572C491.84 504.427 497.489 520.317 508.239 520.317C514.07 520.317 521.541 512.463 521.541 506.618C521.541 500.591 513.888 492.919 507.875 492.919C505.324 492.919 501.68 494.563 499.675 496.572Z" fill="#1E293B"/>
<path d="M848.249 494.746C843.694 496.572 840.414 501.869 840.414 507.532C840.414 512.829 848.432 520.317 854.08 520.317C860.093 520.317 867.746 512.829 867.746 506.984C867.746 497.668 856.996 491.093 848.249 494.746Z" fill="#1E293B"/>
<path d="M346.616 567.807C344.612 569.817 342.972 573.47 342.972 576.027C342.972 586.073 357.003 591.918 363.562 584.611C370.304 577.123 364.656 564.154 354.816 564.154C352.265 564.154 348.621 565.798 346.616 567.807Z" fill="#1E293B"/>
<path d="M1002.22 567.259C997.846 572.373 996.935 576.939 999.304 581.14C1002.04 586.437 1004.22 587.898 1010.24 587.898C1015.16 587.898 1022.63 580.775 1022.63 576.026C1022.63 574.747 1020.99 571.642 1018.8 568.903C1014.43 563.24 1006.41 562.51 1002.22 567.259Z" fill="#1E293B"/>
<path d="M415.129 685.07C405.472 698.769 423.693 715.025 433.897 701.874C436.083 699.134 437.723 695.663 437.723 693.837C437.723 692.01 436.083 688.54 433.897 685.8C428.977 679.59 419.138 679.225 415.129 685.07Z" fill="#1E293B"/>
<path d="M929.699 684.705C921.864 692.559 927.694 706.624 938.445 706.624C945.369 706.624 951.564 700.596 951.564 693.838C951.564 682.879 937.352 677.034 929.699 684.705Z" fill="#1E293B"/>
<path d="M243.302 694.751C235.649 700.048 236.378 711.372 244.76 715.939C250.226 718.861 256.786 716.487 260.065 710.277C266.078 698.587 253.87 687.262 243.302 694.751Z" fill="#1E293B"/>
<path d="M1104.81 696.759C1099.89 703.152 1100.07 707.536 1105.53 713.016C1110.64 718.313 1112.09 718.495 1119.02 714.842C1127.95 710.276 1127.95 698.586 1119.2 693.837C1113.55 690.732 1108.81 691.828 1104.81 696.759Z" fill="#1E293B"/>
<path d="M673.507 747.903C669.863 751.373 669.134 753.565 669.863 757.401C671.138 762.698 677.151 768.725 680.978 768.725C685.715 768.725 692.822 761.236 692.822 756.305C692.822 750.277 691.364 748.085 686.08 745.163C680.431 742.24 678.609 742.606 673.507 747.903Z" fill="#1E293B"/>
<path d="M615.563 878.682C611.554 884.162 611.919 889.642 616.292 894.391C621.212 899.687 626.314 899.505 631.962 893.66C635.607 890.19 636.335 887.998 635.424 884.162C633.238 874.299 620.847 871.011 615.563 878.682Z" fill="#1E293B"/>
<path d="M730.357 877.587C725.984 881.971 726.713 892.199 731.451 895.487C736.917 899.323 741.29 899.14 745.663 894.756C750.219 890.19 750.401 881.605 746.028 877.77C741.837 873.934 734.002 873.751 730.357 877.587Z" fill="#1E293B"/>
<path d="M101.175 338.03C91.3358 348.989 68.5591 394.104 56.1686 426.799C33.2098 487.623 21.0015 541.14 14.9885 607.626C12.8019 630.275 14.0774 635.389 21.1837 635.389C28.1078 635.389 29.9299 631.188 31.5699 608.539C35.3963 560.136 44.1426 516.482 59.4485 467.531C72.75 425.886 88.4204 390.451 108.464 357.391C113.201 349.72 117.028 342.596 117.028 341.5C117.028 338.578 111.561 334.012 108.099 334.012C106.277 334.012 103.18 335.838 101.175 338.03Z" fill="#1E293B"/>
<path d="M1250.76 336.203C1247.11 339.857 1248.03 342.962 1259.32 362.14C1285.38 407.256 1304.88 457.485 1318.72 515.569C1327.83 554.291 1334.21 596.119 1334.21 619.316C1334.21 630.092 1337.13 635.389 1343.14 635.389C1351.52 635.389 1352.25 627.9 1347.88 587.534C1342.96 540.958 1330.39 487.075 1312.89 438.124C1304.33 414.014 1278.45 359.4 1268.25 344.058C1261.87 334.56 1255.31 331.637 1250.76 336.203Z" fill="#1E293B"/>
<path d="M17.1754 734.387C14.26 737.31 14.4422 746.807 17.722 773.84C28.1082 857.13 52.7069 935.853 93.7049 1015.67C105.731 1039.23 109.375 1043.62 115.024 1041.79C123.041 1039.23 121.584 1033.76 103.727 997.773C64.1864 918.501 40.6809 840.143 33.2101 762.333C32.1168 750.278 30.2947 738.588 29.3837 736.214C27.7437 731.83 20.8196 730.734 17.1754 734.387Z" fill="#1E293B"/>
<path d="M1336.22 735.482C1335.3 737.126 1333.66 747.903 1332.57 759.227C1328.2 803.247 1318.36 848.545 1303.42 894.939C1291.21 932.382 1279.73 960.328 1259.5 1000.69C1243.47 1032.66 1243.11 1034.12 1245.84 1038.32C1249.66 1044.17 1254.77 1043.8 1259.14 1037.59C1264.06 1030.83 1284.65 989.187 1294.85 965.443C1306.7 938.227 1313.26 920.145 1322.55 889.276C1340.04 831.558 1355.17 742.606 1348.79 734.934C1345.69 731.281 1338.4 731.464 1336.22 735.482Z" fill="#1E293B"/>
<path d="M129.419 1059.51C107.553 1065.17 104.455 1097.32 124.499 1109.19C129.054 1111.93 132.334 1112.3 141.263 1111.38L152.195 1110.29L186.087 1143.71C204.673 1162.16 231.094 1185.9 244.577 1196.68C266.443 1214.22 316.552 1249.29 323.476 1252.03C324.933 1252.57 326.573 1256.04 327.302 1259.88C330.582 1280.52 357.185 1287.83 371.762 1272.12C376.682 1266.64 377.593 1264.26 377.593 1256.77C377.593 1236.13 357.732 1224.08 339.51 1233.58C331.857 1237.41 331.129 1237.23 302.339 1217.87C258.79 1188.64 224.352 1159.6 186.087 1119.78L163.31 1096.04V1085.99C163.493 1074.67 159.666 1067.73 150.555 1062.61C143.085 1058.41 137.254 1057.5 129.419 1059.51Z" fill="#1E293B"/>
<path d="M1214.5 1062.61C1205.75 1068.09 1202.29 1074.67 1202.29 1085.81V1095.49L1178.42 1119.97C1136.33 1163.44 1104.26 1190.65 1058.89 1220.97L1033.38 1237.96L1027.55 1234.49C1020.62 1230.11 1008.23 1229.74 1000.76 1233.58C992.016 1238.14 988.007 1244.9 988.007 1255.13C988.007 1267.37 993.109 1275.41 1003.31 1279.24C1018.07 1284.9 1035.38 1276.14 1039.21 1261.16C1041.03 1253.85 1042.49 1252.39 1060.53 1240.7C1105.9 1211.29 1143.62 1180.24 1186.44 1136.95L1212.86 1110.47L1220.51 1111.57C1237.46 1113.76 1250.21 1106.27 1254.22 1091.47C1256.59 1082.71 1252.94 1071.38 1245.84 1064.62C1239.28 1058.41 1222.7 1057.5 1214.5 1062.61Z" fill="#1E293B"/>
</svg>
